<mxfile host="Electron" modified="2024-04-10T18:11:51.394Z" agent="Mozilla/5.0 (X11; Linux x86_64) AppleWebKit/537.36 (KHTML, like Gecko) draw.io/24.1.0 Chrome/120.0.6099.109 Electron/28.1.0 Safari/537.36" etag="B2i0M1QVOlFqetWlQLxq" version="24.1.0" type="device">
  <diagram id="rkX0dKiBWzb8pAJWs5m8" name="Page-1">
    <mxGraphModel dx="1114" dy="835" grid="1" gridSize="10" guides="1" tooltips="1" connect="1" arrows="1" fold="1" page="1" pageScale="1" pageWidth="850" pageHeight="1100" math="0" shadow="0">
      <root>
        <mxCell id="0" />
        <mxCell id="1" parent="0" />
        <mxCell id="zZcx0srce1VQphJIKS6f-4" value="" style="edgeStyle=orthogonalEdgeStyle;rounded=0;orthogonalLoop=1;jettySize=auto;html=1;" parent="1" source="zZcx0srce1VQphJIKS6f-1" target="zZcx0srce1VQphJIKS6f-3" edge="1">
          <mxGeometry relative="1" as="geometry" />
        </mxCell>
        <mxCell id="zZcx0srce1VQphJIKS6f-1" value="Start" style="rounded=0;whiteSpace=wrap;html=1;" parent="1" vertex="1">
          <mxGeometry x="140" y="250" width="120" height="60" as="geometry" />
        </mxCell>
        <mxCell id="zZcx0srce1VQphJIKS6f-9" value="" style="edgeStyle=orthogonalEdgeStyle;rounded=0;orthogonalLoop=1;jettySize=auto;html=1;" parent="1" source="zZcx0srce1VQphJIKS6f-3" target="zZcx0srce1VQphJIKS6f-8" edge="1">
          <mxGeometry relative="1" as="geometry" />
        </mxCell>
        <mxCell id="zZcx0srce1VQphJIKS6f-3" value="Connect to Rendezvous Server" style="rounded=0;whiteSpace=wrap;html=1;" parent="1" vertex="1">
          <mxGeometry x="340" y="250" width="120" height="60" as="geometry" />
        </mxCell>
        <mxCell id="zZcx0srce1VQphJIKS6f-11" value="" style="edgeStyle=orthogonalEdgeStyle;rounded=0;orthogonalLoop=1;jettySize=auto;html=1;" parent="1" source="zZcx0srce1VQphJIKS6f-8" target="zZcx0srce1VQphJIKS6f-10" edge="1">
          <mxGeometry relative="1" as="geometry" />
        </mxCell>
        <mxCell id="zZcx0srce1VQphJIKS6f-8" value="Send READY_FOR_P2P AND MY_DATA messages" style="whiteSpace=wrap;html=1;rounded=0;" parent="1" vertex="1">
          <mxGeometry x="540" y="230" width="120" height="100" as="geometry" />
        </mxCell>
        <mxCell id="zZcx0srce1VQphJIKS6f-13" value="" style="edgeStyle=orthogonalEdgeStyle;rounded=0;orthogonalLoop=1;jettySize=auto;html=1;" parent="1" source="zZcx0srce1VQphJIKS6f-10" target="zZcx0srce1VQphJIKS6f-12" edge="1">
          <mxGeometry relative="1" as="geometry" />
        </mxCell>
        <mxCell id="zZcx0srce1VQphJIKS6f-10" value="Wait for a CONNECT_PEER message from the server" style="whiteSpace=wrap;html=1;rounded=0;" parent="1" vertex="1">
          <mxGeometry x="740" y="230" width="120" height="100" as="geometry" />
        </mxCell>
        <mxCell id="zZcx0srce1VQphJIKS6f-15" value="" style="edgeStyle=orthogonalEdgeStyle;rounded=0;orthogonalLoop=1;jettySize=auto;html=1;" parent="1" source="zZcx0srce1VQphJIKS6f-12" target="zZcx0srce1VQphJIKS6f-14" edge="1">
          <mxGeometry relative="1" as="geometry">
            <Array as="points">
              <mxPoint x="670" y="470" />
              <mxPoint x="670" y="380" />
            </Array>
          </mxGeometry>
        </mxCell>
        <mxCell id="zZcx0srce1VQphJIKS6f-17" value="" style="edgeStyle=orthogonalEdgeStyle;rounded=0;orthogonalLoop=1;jettySize=auto;html=1;" parent="1" source="zZcx0srce1VQphJIKS6f-12" target="zZcx0srce1VQphJIKS6f-16" edge="1">
          <mxGeometry relative="1" as="geometry" />
        </mxCell>
        <mxCell id="zZcx0srce1VQphJIKS6f-19" value="" style="edgeStyle=orthogonalEdgeStyle;rounded=0;orthogonalLoop=1;jettySize=auto;html=1;exitX=0;exitY=0.5;exitDx=0;exitDy=0;" parent="1" source="zZcx0srce1VQphJIKS6f-12" target="zZcx0srce1VQphJIKS6f-18" edge="1">
          <mxGeometry relative="1" as="geometry">
            <Array as="points">
              <mxPoint x="670" y="470" />
              <mxPoint x="670" y="560" />
            </Array>
          </mxGeometry>
        </mxCell>
        <mxCell id="zZcx0srce1VQphJIKS6f-12" value="Attempt to Hole Punch" style="whiteSpace=wrap;html=1;rounded=0;" parent="1" vertex="1">
          <mxGeometry x="740" y="440" width="120" height="60" as="geometry" />
        </mxCell>
        <mxCell id="zZcx0srce1VQphJIKS6f-23" value="" style="edgeStyle=orthogonalEdgeStyle;rounded=0;orthogonalLoop=1;jettySize=auto;html=1;" parent="1" source="zZcx0srce1VQphJIKS6f-14" target="zZcx0srce1VQphJIKS6f-22" edge="1">
          <mxGeometry relative="1" as="geometry" />
        </mxCell>
        <mxCell id="zZcx0srce1VQphJIKS6f-14" value="Starts Listening for Other Peer&#39;s Connection" style="whiteSpace=wrap;html=1;rounded=0;" parent="1" vertex="1">
          <mxGeometry x="480" y="340" width="120" height="80" as="geometry" />
        </mxCell>
        <mxCell id="zZcx0srce1VQphJIKS6f-26" value="" style="edgeStyle=orthogonalEdgeStyle;rounded=0;orthogonalLoop=1;jettySize=auto;html=1;" parent="1" source="zZcx0srce1VQphJIKS6f-16" target="zZcx0srce1VQphJIKS6f-25" edge="1">
          <mxGeometry relative="1" as="geometry" />
        </mxCell>
        <mxCell id="zZcx0srce1VQphJIKS6f-16" value="Attempt to Connect to Peer&#39;s Public Endpoint" style="whiteSpace=wrap;html=1;rounded=0;" parent="1" vertex="1">
          <mxGeometry x="480" y="430" width="120" height="80" as="geometry" />
        </mxCell>
        <mxCell id="zZcx0srce1VQphJIKS6f-29" value="" style="edgeStyle=orthogonalEdgeStyle;rounded=0;orthogonalLoop=1;jettySize=auto;html=1;" parent="1" source="zZcx0srce1VQphJIKS6f-18" target="zZcx0srce1VQphJIKS6f-28" edge="1">
          <mxGeometry relative="1" as="geometry" />
        </mxCell>
        <mxCell id="zZcx0srce1VQphJIKS6f-18" value="Attempt to Connect to Peer&#39;s Private Endpoint" style="whiteSpace=wrap;html=1;rounded=0;" parent="1" vertex="1">
          <mxGeometry x="480" y="520" width="120" height="80" as="geometry" />
        </mxCell>
        <mxCell id="zZcx0srce1VQphJIKS6f-33" value="" style="edgeStyle=orthogonalEdgeStyle;rounded=0;orthogonalLoop=1;jettySize=auto;html=1;" parent="1" source="zZcx0srce1VQphJIKS6f-20" target="zZcx0srce1VQphJIKS6f-32" edge="1">
          <mxGeometry relative="1" as="geometry">
            <Array as="points">
              <mxPoint x="160" y="470" />
            </Array>
          </mxGeometry>
        </mxCell>
        <mxCell id="zZcx0srce1VQphJIKS6f-20" value="Attempt to Authenticate Socket" style="whiteSpace=wrap;html=1;rounded=0;" parent="1" vertex="1">
          <mxGeometry x="180" y="440" width="120" height="60" as="geometry" />
        </mxCell>
        <mxCell id="zZcx0srce1VQphJIKS6f-24" style="edgeStyle=orthogonalEdgeStyle;rounded=0;orthogonalLoop=1;jettySize=auto;html=1;entryX=0.5;entryY=0;entryDx=0;entryDy=0;" parent="1" source="zZcx0srce1VQphJIKS6f-22" target="zZcx0srce1VQphJIKS6f-20" edge="1">
          <mxGeometry relative="1" as="geometry">
            <Array as="points">
              <mxPoint x="240" y="370" />
            </Array>
          </mxGeometry>
        </mxCell>
        <mxCell id="zZcx0srce1VQphJIKS6f-22" value="Wait for there to be a Socket available" style="whiteSpace=wrap;html=1;rounded=0;" parent="1" vertex="1">
          <mxGeometry x="330" y="350" width="120" height="60" as="geometry" />
        </mxCell>
        <mxCell id="zZcx0srce1VQphJIKS6f-36" style="edgeStyle=orthogonalEdgeStyle;rounded=0;orthogonalLoop=1;jettySize=auto;html=1;entryX=1;entryY=0.5;entryDx=0;entryDy=0;" parent="1" source="zZcx0srce1VQphJIKS6f-25" target="zZcx0srce1VQphJIKS6f-20" edge="1">
          <mxGeometry relative="1" as="geometry" />
        </mxCell>
        <mxCell id="zZcx0srce1VQphJIKS6f-25" value="Wait for it to succeed" style="whiteSpace=wrap;html=1;rounded=0;" parent="1" vertex="1">
          <mxGeometry x="330" y="440" width="120" height="60" as="geometry" />
        </mxCell>
        <mxCell id="zZcx0srce1VQphJIKS6f-30" style="edgeStyle=orthogonalEdgeStyle;rounded=0;orthogonalLoop=1;jettySize=auto;html=1;entryX=0.5;entryY=1;entryDx=0;entryDy=0;" parent="1" source="zZcx0srce1VQphJIKS6f-28" target="zZcx0srce1VQphJIKS6f-20" edge="1">
          <mxGeometry relative="1" as="geometry" />
        </mxCell>
        <mxCell id="zZcx0srce1VQphJIKS6f-28" value="Wait for it to succeed" style="whiteSpace=wrap;html=1;rounded=0;" parent="1" vertex="1">
          <mxGeometry x="330" y="530" width="120" height="60" as="geometry" />
        </mxCell>
        <mxCell id="zZcx0srce1VQphJIKS6f-35" value="" style="edgeStyle=orthogonalEdgeStyle;rounded=0;orthogonalLoop=1;jettySize=auto;html=1;" parent="1" source="zZcx0srce1VQphJIKS6f-32" target="zZcx0srce1VQphJIKS6f-34" edge="1">
          <mxGeometry relative="1" as="geometry" />
        </mxCell>
        <mxCell id="zZcx0srce1VQphJIKS6f-32" value="We&#39;ve connected to the peer" style="whiteSpace=wrap;html=1;rounded=0;" parent="1" vertex="1">
          <mxGeometry x="100" y="630" width="120" height="60" as="geometry" />
        </mxCell>
        <mxCell id="zZcx0srce1VQphJIKS6f-38" value="" style="edgeStyle=orthogonalEdgeStyle;rounded=0;orthogonalLoop=1;jettySize=auto;html=1;" parent="1" source="zZcx0srce1VQphJIKS6f-34" target="zZcx0srce1VQphJIKS6f-37" edge="1">
          <mxGeometry relative="1" as="geometry" />
        </mxCell>
        <mxCell id="zZcx0srce1VQphJIKS6f-34" value="Transmit a file to the peer" style="whiteSpace=wrap;html=1;rounded=0;" parent="1" vertex="1">
          <mxGeometry x="330" y="630" width="120" height="60" as="geometry" />
        </mxCell>
        <mxCell id="zZcx0srce1VQphJIKS6f-37" value="Receive file chunks from peer" style="whiteSpace=wrap;html=1;rounded=0;" parent="1" vertex="1">
          <mxGeometry x="480" y="630" width="120" height="60" as="geometry" />
        </mxCell>
      </root>
    </mxGraphModel>
  </diagram>
</mxfile>
